<mxfile host="app.diagrams.net" modified="2023-07-26T07:37:54.411Z" agent="Mozilla/5.0 (Windows NT 10.0; Win64; x64) AppleWebKit/537.36 (KHTML, like Gecko) Chrome/114.0.0.0 Safari/537.36 Edg/114.0.1823.82" etag="yW93zPxnspK0yerNPe2G" version="21.6.5" type="github">
  <diagram id="R2lEEEUBdFMjLlhIrx00" name="Page-1">
    <mxGraphModel dx="1154" dy="796" grid="1" gridSize="10" guides="1" tooltips="1" connect="1" arrows="1" fold="1" page="1" pageScale="1" pageWidth="850" pageHeight="1100" math="0" shadow="0" extFonts="Permanent Marker^https://fonts.googleapis.com/css?family=Permanent+Marker">
      <root>
        <mxCell id="0" />
        <mxCell id="1" parent="0" />
        <mxCell id="C-vyLk0tnHw3VtMMgP7b-1" value="" style="edgeStyle=entityRelationEdgeStyle;endArrow=ERzeroToMany;startArrow=ERone;endFill=1;startFill=0;labelBackgroundColor=none;fontColor=default;rounded=0;strokeColor=#E07A5F;" parent="1" source="C-vyLk0tnHw3VtMMgP7b-24" target="C-vyLk0tnHw3VtMMgP7b-6" edge="1">
          <mxGeometry width="100" height="100" relative="1" as="geometry">
            <mxPoint x="340" y="720" as="sourcePoint" />
            <mxPoint x="440" y="620" as="targetPoint" />
          </mxGeometry>
        </mxCell>
        <mxCell id="C-vyLk0tnHw3VtMMgP7b-12" value="" style="edgeStyle=entityRelationEdgeStyle;endArrow=ERzeroToMany;startArrow=ERone;endFill=1;startFill=0;labelBackgroundColor=none;fontColor=default;rounded=0;strokeColor=#E07A5F;" parent="1" source="C-vyLk0tnHw3VtMMgP7b-3" target="C-vyLk0tnHw3VtMMgP7b-17" edge="1">
          <mxGeometry width="100" height="100" relative="1" as="geometry">
            <mxPoint x="400" y="180" as="sourcePoint" />
            <mxPoint x="460" y="205" as="targetPoint" />
          </mxGeometry>
        </mxCell>
        <mxCell id="C-vyLk0tnHw3VtMMgP7b-2" value="品牌表 t_quota_brand" style="shape=table;startSize=30;container=1;collapsible=1;childLayout=tableLayout;fixedRows=1;rowLines=0;fontStyle=1;align=center;resizeLast=1;labelBackgroundColor=none;rounded=0;fillColor=#F2CC8F;strokeColor=#E07A5F;fontColor=#393C56;" parent="1" vertex="1">
          <mxGeometry x="400" y="90" width="250" height="270" as="geometry" />
        </mxCell>
        <mxCell id="C-vyLk0tnHw3VtMMgP7b-3" value="" style="shape=partialRectangle;collapsible=0;dropTarget=0;pointerEvents=0;fillColor=none;points=[[0,0.5],[1,0.5]];portConstraint=eastwest;top=0;left=0;right=0;bottom=1;labelBackgroundColor=none;rounded=0;strokeColor=#E07A5F;fontColor=#393C56;" parent="C-vyLk0tnHw3VtMMgP7b-2" vertex="1">
          <mxGeometry y="30" width="250" height="30" as="geometry" />
        </mxCell>
        <mxCell id="C-vyLk0tnHw3VtMMgP7b-4" value="PK" style="shape=partialRectangle;overflow=hidden;connectable=0;fillColor=none;top=0;left=0;bottom=0;right=0;fontStyle=1;labelBackgroundColor=none;rounded=0;strokeColor=#E07A5F;fontColor=#393C56;" parent="C-vyLk0tnHw3VtMMgP7b-3" vertex="1">
          <mxGeometry width="30" height="30" as="geometry">
            <mxRectangle width="30" height="30" as="alternateBounds" />
          </mxGeometry>
        </mxCell>
        <mxCell id="C-vyLk0tnHw3VtMMgP7b-5" value="id bigint NOT NULL " style="shape=partialRectangle;overflow=hidden;connectable=0;fillColor=none;top=0;left=0;bottom=0;right=0;align=left;spacingLeft=6;fontStyle=5;labelBackgroundColor=none;rounded=0;strokeColor=#E07A5F;fontColor=#393C56;" parent="C-vyLk0tnHw3VtMMgP7b-3" vertex="1">
          <mxGeometry x="30" width="220" height="30" as="geometry">
            <mxRectangle width="220" height="30" as="alternateBounds" />
          </mxGeometry>
        </mxCell>
        <mxCell id="C-vyLk0tnHw3VtMMgP7b-6" value="" style="shape=partialRectangle;collapsible=0;dropTarget=0;pointerEvents=0;fillColor=none;points=[[0,0.5],[1,0.5]];portConstraint=eastwest;top=0;left=0;right=0;bottom=0;labelBackgroundColor=none;rounded=0;strokeColor=#E07A5F;fontColor=#393C56;" parent="C-vyLk0tnHw3VtMMgP7b-2" vertex="1">
          <mxGeometry y="60" width="250" height="30" as="geometry" />
        </mxCell>
        <mxCell id="C-vyLk0tnHw3VtMMgP7b-7" value="" style="shape=partialRectangle;overflow=hidden;connectable=0;fillColor=none;top=0;left=0;bottom=0;right=0;labelBackgroundColor=none;rounded=0;strokeColor=#E07A5F;fontColor=#393C56;" parent="C-vyLk0tnHw3VtMMgP7b-6" vertex="1">
          <mxGeometry width="30" height="30" as="geometry">
            <mxRectangle width="30" height="30" as="alternateBounds" />
          </mxGeometry>
        </mxCell>
        <mxCell id="C-vyLk0tnHw3VtMMgP7b-8" value="category_id bigint NOT NULL" style="shape=partialRectangle;overflow=hidden;connectable=0;fillColor=none;top=0;left=0;bottom=0;right=0;align=left;spacingLeft=6;labelBackgroundColor=none;rounded=0;strokeColor=#E07A5F;fontColor=#393C56;" parent="C-vyLk0tnHw3VtMMgP7b-6" vertex="1">
          <mxGeometry x="30" width="220" height="30" as="geometry">
            <mxRectangle width="220" height="30" as="alternateBounds" />
          </mxGeometry>
        </mxCell>
        <mxCell id="C-vyLk0tnHw3VtMMgP7b-9" value="" style="shape=partialRectangle;collapsible=0;dropTarget=0;pointerEvents=0;fillColor=none;points=[[0,0.5],[1,0.5]];portConstraint=eastwest;top=0;left=0;right=0;bottom=0;labelBackgroundColor=none;rounded=0;strokeColor=#E07A5F;fontColor=#393C56;" parent="C-vyLk0tnHw3VtMMgP7b-2" vertex="1">
          <mxGeometry y="90" width="250" height="170" as="geometry" />
        </mxCell>
        <mxCell id="C-vyLk0tnHw3VtMMgP7b-10" value="" style="shape=partialRectangle;overflow=hidden;connectable=0;fillColor=none;top=0;left=0;bottom=0;right=0;labelBackgroundColor=none;rounded=0;strokeColor=#E07A5F;fontColor=#393C56;" parent="C-vyLk0tnHw3VtMMgP7b-9" vertex="1">
          <mxGeometry width="30" height="170" as="geometry">
            <mxRectangle width="30" height="170" as="alternateBounds" />
          </mxGeometry>
        </mxCell>
        <mxCell id="C-vyLk0tnHw3VtMMgP7b-11" value="brand_name varchar(50) NOT NULL,&#xa;  brand_grade tinyint(1) NOT NULL,&#xa;  brand_attribute tinyint(3) NOT NULL,&#xa;  brand_remarks text,&#xa;  creator varchar(10),&#xa;  creator_id bigint,&#xa;  create_time datetime,&#xa;  created_host_ip varchar(50),&#xa;  last_operator varchar(10),&#xa;  last_operator_id bigint,&#xa;  update_time datetime,&#xa;  update_host_ip varchar(50)," style="shape=partialRectangle;overflow=hidden;connectable=0;fillColor=none;top=0;left=0;bottom=0;right=0;align=left;spacingLeft=6;labelBackgroundColor=none;rounded=0;strokeColor=#E07A5F;fontColor=#393C56;" parent="C-vyLk0tnHw3VtMMgP7b-9" vertex="1">
          <mxGeometry x="30" width="220" height="170" as="geometry">
            <mxRectangle width="220" height="170" as="alternateBounds" />
          </mxGeometry>
        </mxCell>
        <mxCell id="C-vyLk0tnHw3VtMMgP7b-13" value="供应商表t_quota_vendor" style="shape=table;startSize=30;container=1;collapsible=1;childLayout=tableLayout;fixedRows=1;rowLines=0;fontStyle=1;align=center;resizeLast=1;labelBackgroundColor=none;rounded=0;fillColor=#F2CC8F;strokeColor=#E07A5F;fontColor=#393C56;" parent="1" vertex="1">
          <mxGeometry x="450" y="410" width="280" height="290" as="geometry" />
        </mxCell>
        <mxCell id="C-vyLk0tnHw3VtMMgP7b-14" value="" style="shape=partialRectangle;collapsible=0;dropTarget=0;pointerEvents=0;fillColor=none;points=[[0,0.5],[1,0.5]];portConstraint=eastwest;top=0;left=0;right=0;bottom=1;labelBackgroundColor=none;rounded=0;strokeColor=#E07A5F;fontColor=#393C56;" parent="C-vyLk0tnHw3VtMMgP7b-13" vertex="1">
          <mxGeometry y="30" width="280" height="30" as="geometry" />
        </mxCell>
        <mxCell id="C-vyLk0tnHw3VtMMgP7b-15" value="PK" style="shape=partialRectangle;overflow=hidden;connectable=0;fillColor=none;top=0;left=0;bottom=0;right=0;fontStyle=1;labelBackgroundColor=none;rounded=0;strokeColor=#E07A5F;fontColor=#393C56;" parent="C-vyLk0tnHw3VtMMgP7b-14" vertex="1">
          <mxGeometry width="30" height="30" as="geometry">
            <mxRectangle width="30" height="30" as="alternateBounds" />
          </mxGeometry>
        </mxCell>
        <mxCell id="C-vyLk0tnHw3VtMMgP7b-16" value="id BIGINT NOT NULL " style="shape=partialRectangle;overflow=hidden;connectable=0;fillColor=none;top=0;left=0;bottom=0;right=0;align=left;spacingLeft=6;fontStyle=5;labelBackgroundColor=none;rounded=0;strokeColor=#E07A5F;fontColor=#393C56;" parent="C-vyLk0tnHw3VtMMgP7b-14" vertex="1">
          <mxGeometry x="30" width="250" height="30" as="geometry">
            <mxRectangle width="250" height="30" as="alternateBounds" />
          </mxGeometry>
        </mxCell>
        <mxCell id="C-vyLk0tnHw3VtMMgP7b-17" value="" style="shape=partialRectangle;collapsible=0;dropTarget=0;pointerEvents=0;fillColor=none;points=[[0,0.5],[1,0.5]];portConstraint=eastwest;top=0;left=0;right=0;bottom=0;labelBackgroundColor=none;rounded=0;strokeColor=#E07A5F;fontColor=#393C56;" parent="C-vyLk0tnHw3VtMMgP7b-13" vertex="1">
          <mxGeometry y="60" width="280" height="30" as="geometry" />
        </mxCell>
        <mxCell id="C-vyLk0tnHw3VtMMgP7b-18" value="" style="shape=partialRectangle;overflow=hidden;connectable=0;fillColor=none;top=0;left=0;bottom=0;right=0;labelBackgroundColor=none;rounded=0;strokeColor=#E07A5F;fontColor=#393C56;" parent="C-vyLk0tnHw3VtMMgP7b-17" vertex="1">
          <mxGeometry width="30" height="30" as="geometry">
            <mxRectangle width="30" height="30" as="alternateBounds" />
          </mxGeometry>
        </mxCell>
        <mxCell id="C-vyLk0tnHw3VtMMgP7b-19" value="brand_id BIGINT NOT NULL," style="shape=partialRectangle;overflow=hidden;connectable=0;fillColor=none;top=0;left=0;bottom=0;right=0;align=left;spacingLeft=6;labelBackgroundColor=none;rounded=0;strokeColor=#E07A5F;fontColor=#393C56;" parent="C-vyLk0tnHw3VtMMgP7b-17" vertex="1">
          <mxGeometry x="30" width="250" height="30" as="geometry">
            <mxRectangle width="250" height="30" as="alternateBounds" />
          </mxGeometry>
        </mxCell>
        <mxCell id="C-vyLk0tnHw3VtMMgP7b-20" value="" style="shape=partialRectangle;collapsible=0;dropTarget=0;pointerEvents=0;fillColor=none;points=[[0,0.5],[1,0.5]];portConstraint=eastwest;top=0;left=0;right=0;bottom=0;labelBackgroundColor=none;rounded=0;strokeColor=#E07A5F;fontColor=#393C56;" parent="C-vyLk0tnHw3VtMMgP7b-13" vertex="1">
          <mxGeometry y="90" width="280" height="190" as="geometry" />
        </mxCell>
        <mxCell id="C-vyLk0tnHw3VtMMgP7b-21" value="" style="shape=partialRectangle;overflow=hidden;connectable=0;fillColor=none;top=0;left=0;bottom=0;right=0;labelBackgroundColor=none;rounded=0;strokeColor=#E07A5F;fontColor=#393C56;" parent="C-vyLk0tnHw3VtMMgP7b-20" vertex="1">
          <mxGeometry width="30" height="190" as="geometry">
            <mxRectangle width="30" height="190" as="alternateBounds" />
          </mxGeometry>
        </mxCell>
        <mxCell id="C-vyLk0tnHw3VtMMgP7b-22" value="vendor_name VARCHAR(100) NOT NULL,&#xa;vendor_area VARCHAR(10) NOT NULL,&#xa;vendor_address TEXT NOT NULL,&#xa;remarks TEXT NOT NULL,&#xa;creator VARCHAR(10) NOT NULL,&#xa;creator_id BIGINT NOT NULL,&#xa;create_time DATETIME NOT NULL,&#xa;created_host_ip VARCHAR(50) NOT NULL,&#xa;last_operator VARCHAR(10) NOT NULL,&#xa;last_operator_id BIGINT NOT NULL,&#xa;update_time DATETIME NOT NULL,&#xa;update_host_ip VARCHAR(50) NOT NULL," style="shape=partialRectangle;overflow=hidden;connectable=0;fillColor=none;top=0;left=0;bottom=0;right=0;align=left;spacingLeft=6;labelBackgroundColor=none;rounded=0;strokeColor=#E07A5F;fontColor=#393C56;" parent="C-vyLk0tnHw3VtMMgP7b-20" vertex="1">
          <mxGeometry x="30" width="250" height="190" as="geometry">
            <mxRectangle width="250" height="190" as="alternateBounds" />
          </mxGeometry>
        </mxCell>
        <mxCell id="C-vyLk0tnHw3VtMMgP7b-23" value="材料类别表t_quota_material_category" style="shape=table;startSize=30;container=1;collapsible=1;childLayout=tableLayout;fixedRows=1;rowLines=0;fontStyle=1;align=center;resizeLast=1;labelBackgroundColor=none;rounded=0;fillColor=#F2CC8F;strokeColor=#E07A5F;fontColor=#393C56;" parent="1" vertex="1">
          <mxGeometry x="50" y="120" width="280" height="230" as="geometry">
            <mxRectangle x="120" y="120" width="100" height="30" as="alternateBounds" />
          </mxGeometry>
        </mxCell>
        <mxCell id="C-vyLk0tnHw3VtMMgP7b-24" value="" style="shape=partialRectangle;collapsible=0;dropTarget=0;pointerEvents=0;fillColor=none;points=[[0,0.5],[1,0.5]];portConstraint=eastwest;top=0;left=0;right=0;bottom=1;labelBackgroundColor=none;rounded=0;strokeColor=#E07A5F;fontColor=#393C56;" parent="C-vyLk0tnHw3VtMMgP7b-23" vertex="1">
          <mxGeometry y="30" width="280" height="30" as="geometry" />
        </mxCell>
        <mxCell id="C-vyLk0tnHw3VtMMgP7b-25" value="PK" style="shape=partialRectangle;overflow=hidden;connectable=0;fillColor=none;top=0;left=0;bottom=0;right=0;fontStyle=1;labelBackgroundColor=none;rounded=0;strokeColor=#E07A5F;fontColor=#393C56;" parent="C-vyLk0tnHw3VtMMgP7b-24" vertex="1">
          <mxGeometry width="30" height="30" as="geometry">
            <mxRectangle width="30" height="30" as="alternateBounds" />
          </mxGeometry>
        </mxCell>
        <mxCell id="C-vyLk0tnHw3VtMMgP7b-26" value="id BIGINT NOT NULL " style="shape=partialRectangle;overflow=hidden;connectable=0;fillColor=none;top=0;left=0;bottom=0;right=0;align=left;spacingLeft=6;fontStyle=5;labelBackgroundColor=none;rounded=0;strokeColor=#E07A5F;fontColor=#393C56;" parent="C-vyLk0tnHw3VtMMgP7b-24" vertex="1">
          <mxGeometry x="30" width="250" height="30" as="geometry">
            <mxRectangle width="250" height="30" as="alternateBounds" />
          </mxGeometry>
        </mxCell>
        <mxCell id="C-vyLk0tnHw3VtMMgP7b-27" value="" style="shape=partialRectangle;collapsible=0;dropTarget=0;pointerEvents=0;fillColor=none;points=[[0,0.5],[1,0.5]];portConstraint=eastwest;top=0;left=0;right=0;bottom=0;labelBackgroundColor=none;rounded=0;strokeColor=#E07A5F;fontColor=#393C56;" parent="C-vyLk0tnHw3VtMMgP7b-23" vertex="1">
          <mxGeometry y="60" width="280" height="160" as="geometry" />
        </mxCell>
        <mxCell id="C-vyLk0tnHw3VtMMgP7b-28" value="" style="shape=partialRectangle;overflow=hidden;connectable=0;fillColor=none;top=0;left=0;bottom=0;right=0;labelBackgroundColor=none;rounded=0;strokeColor=#E07A5F;fontColor=#393C56;" parent="C-vyLk0tnHw3VtMMgP7b-27" vertex="1">
          <mxGeometry width="30" height="160" as="geometry">
            <mxRectangle width="30" height="160" as="alternateBounds" />
          </mxGeometry>
        </mxCell>
        <mxCell id="C-vyLk0tnHw3VtMMgP7b-29" value="enterprise_id BIGINT NOT NULL,&#xa;category_name VARCHAR(20) NOT NULL,&#xa;parent_id BIGINT NOT NULL,&#xa;creator VARCHAR(10) NOT NULL,&#xa;creator_id BIGINT NOT NULL,&#xa;create_time DATETIME NOT NULL,&#xa;created_host_ip VARCHAR(50) NOT NULL,&#xa;last_operator VARCHAR(10) NOT NULL,&#xa;last_operator_id BIGINT NOT NULL,&#xa;update_time DATETIME NOT NULL,&#xa;update_host_ip varchar(50) NOT NULL," style="shape=partialRectangle;overflow=hidden;connectable=0;fillColor=none;top=0;left=0;bottom=0;right=0;align=left;spacingLeft=6;labelBackgroundColor=none;rounded=0;strokeColor=#E07A5F;fontColor=#393C56;" parent="C-vyLk0tnHw3VtMMgP7b-27" vertex="1">
          <mxGeometry x="30" width="250" height="160" as="geometry">
            <mxRectangle width="250" height="160" as="alternateBounds" />
          </mxGeometry>
        </mxCell>
        <mxCell id="XAK37zAmvjrQlF6GhexY-2" value="供应商联系人表t_quota_vendor_contacts" style="shape=table;startSize=30;container=1;collapsible=1;childLayout=tableLayout;fixedRows=1;rowLines=0;fontStyle=1;align=center;resizeLast=1;labelBackgroundColor=none;rounded=0;fillColor=#F2CC8F;strokeColor=#E07A5F;fontColor=#393C56;" parent="1" vertex="1">
          <mxGeometry x="70" y="410" width="250" height="280" as="geometry" />
        </mxCell>
        <mxCell id="XAK37zAmvjrQlF6GhexY-3" value="" style="shape=partialRectangle;collapsible=0;dropTarget=0;pointerEvents=0;fillColor=none;points=[[0,0.5],[1,0.5]];portConstraint=eastwest;top=0;left=0;right=0;bottom=1;labelBackgroundColor=none;rounded=0;strokeColor=#E07A5F;fontColor=#393C56;" parent="XAK37zAmvjrQlF6GhexY-2" vertex="1">
          <mxGeometry y="30" width="250" height="30" as="geometry" />
        </mxCell>
        <mxCell id="XAK37zAmvjrQlF6GhexY-4" value="PK" style="shape=partialRectangle;overflow=hidden;connectable=0;fillColor=none;top=0;left=0;bottom=0;right=0;fontStyle=1;labelBackgroundColor=none;rounded=0;strokeColor=#E07A5F;fontColor=#393C56;" parent="XAK37zAmvjrQlF6GhexY-3" vertex="1">
          <mxGeometry width="30" height="30" as="geometry">
            <mxRectangle width="30" height="30" as="alternateBounds" />
          </mxGeometry>
        </mxCell>
        <mxCell id="XAK37zAmvjrQlF6GhexY-5" value="shipment_id int NOT NULL " style="shape=partialRectangle;overflow=hidden;connectable=0;fillColor=none;top=0;left=0;bottom=0;right=0;align=left;spacingLeft=6;fontStyle=5;labelBackgroundColor=none;rounded=0;strokeColor=#E07A5F;fontColor=#393C56;" parent="XAK37zAmvjrQlF6GhexY-3" vertex="1">
          <mxGeometry x="30" width="220" height="30" as="geometry">
            <mxRectangle width="220" height="30" as="alternateBounds" />
          </mxGeometry>
        </mxCell>
        <mxCell id="XAK37zAmvjrQlF6GhexY-6" value="" style="shape=partialRectangle;collapsible=0;dropTarget=0;pointerEvents=0;fillColor=none;points=[[0,0.5],[1,0.5]];portConstraint=eastwest;top=0;left=0;right=0;bottom=0;labelBackgroundColor=none;rounded=0;strokeColor=#E07A5F;fontColor=#393C56;" parent="XAK37zAmvjrQlF6GhexY-2" vertex="1">
          <mxGeometry y="60" width="250" height="30" as="geometry" />
        </mxCell>
        <mxCell id="XAK37zAmvjrQlF6GhexY-7" value="" style="shape=partialRectangle;overflow=hidden;connectable=0;fillColor=none;top=0;left=0;bottom=0;right=0;labelBackgroundColor=none;rounded=0;strokeColor=#E07A5F;fontColor=#393C56;" parent="XAK37zAmvjrQlF6GhexY-6" vertex="1">
          <mxGeometry width="30" height="30" as="geometry">
            <mxRectangle width="30" height="30" as="alternateBounds" />
          </mxGeometry>
        </mxCell>
        <mxCell id="XAK37zAmvjrQlF6GhexY-8" value="order_id int NOT NULL" style="shape=partialRectangle;overflow=hidden;connectable=0;fillColor=none;top=0;left=0;bottom=0;right=0;align=left;spacingLeft=6;labelBackgroundColor=none;rounded=0;strokeColor=#E07A5F;fontColor=#393C56;" parent="XAK37zAmvjrQlF6GhexY-6" vertex="1">
          <mxGeometry x="30" width="220" height="30" as="geometry">
            <mxRectangle width="220" height="30" as="alternateBounds" />
          </mxGeometry>
        </mxCell>
        <mxCell id="XAK37zAmvjrQlF6GhexY-9" value="" style="shape=partialRectangle;collapsible=0;dropTarget=0;pointerEvents=0;fillColor=none;points=[[0,0.5],[1,0.5]];portConstraint=eastwest;top=0;left=0;right=0;bottom=0;labelBackgroundColor=none;rounded=0;strokeColor=#E07A5F;fontColor=#393C56;" parent="XAK37zAmvjrQlF6GhexY-2" vertex="1">
          <mxGeometry y="90" width="250" height="180" as="geometry" />
        </mxCell>
        <mxCell id="XAK37zAmvjrQlF6GhexY-10" value="" style="shape=partialRectangle;overflow=hidden;connectable=0;fillColor=none;top=0;left=0;bottom=0;right=0;labelBackgroundColor=none;rounded=0;strokeColor=#E07A5F;fontColor=#393C56;" parent="XAK37zAmvjrQlF6GhexY-9" vertex="1">
          <mxGeometry width="30" height="180" as="geometry">
            <mxRectangle width="30" height="180" as="alternateBounds" />
          </mxGeometry>
        </mxCell>
        <mxCell id="XAK37zAmvjrQlF6GhexY-11" value="    name varchar(10) NOT NULL,&#xa;    telephone varchar(50) NOT NULL,&#xa;    creator varchar(10),&#xa;    creator_id bigint,&#xa;    create_time datetime,&#xa;    created_host_ip varchar(50),&#xa;    last_operator varchar(10),&#xa;    last_operator_id bigint,&#xa;    update_time datetime,&#xa;    update_host_ip varchar(50)," style="shape=partialRectangle;overflow=hidden;connectable=0;fillColor=none;top=0;left=0;bottom=0;right=0;align=left;spacingLeft=6;labelBackgroundColor=none;rounded=0;strokeColor=#E07A5F;fontColor=#393C56;" parent="XAK37zAmvjrQlF6GhexY-9" vertex="1">
          <mxGeometry x="30" width="220" height="180" as="geometry">
            <mxRectangle width="220" height="180" as="alternateBounds" />
          </mxGeometry>
        </mxCell>
        <mxCell id="XAK37zAmvjrQlF6GhexY-13" value="" style="edgeStyle=entityRelationEdgeStyle;endArrow=ERzeroToMany;startArrow=ERone;endFill=1;startFill=0;exitX=0;exitY=0.5;exitDx=0;exitDy=0;entryX=1;entryY=0.5;entryDx=0;entryDy=0;labelBackgroundColor=none;fontColor=default;rounded=0;strokeColor=#E07A5F;" parent="1" source="C-vyLk0tnHw3VtMMgP7b-14" target="XAK37zAmvjrQlF6GhexY-6" edge="1">
          <mxGeometry width="100" height="100" relative="1" as="geometry">
            <mxPoint x="350" y="430" as="sourcePoint" />
            <mxPoint x="400" y="780" as="targetPoint" />
          </mxGeometry>
        </mxCell>
      </root>
    </mxGraphModel>
  </diagram>
</mxfile>
